<svg width="20" height="20" viewBox="0 0 20 20" fill="none" xmlns="http://www.w3.org/2000/svg">
	<path fill-rule="evenodd" clip-rule="evenodd" d="M5.2803 4.2197C4.98741 3.92681 4.51253 3.92681 4.21964 4.2197C3.92675 4.51259 3.92675 4.98747 4.21964 5.28036L8.92059 9.98131L4.22064 14.6813C3.92775 14.9742 3.92775 15.449 4.22064 15.7419C4.51353 16.0348 4.98841 16.0348 5.2813 15.7419L9.98125 11.042L14.6802 15.7409C14.9731 16.0338 15.448 16.0338 15.7409 15.7409C16.0337 15.448 16.0337 14.9731 15.7409 14.6803L11.0419 9.98131L15.7419 5.28137C16.0347 4.98848 16.0347 4.5136 15.7419 4.22071C15.449 3.92782 14.9741 3.92782 14.6812 4.22071L9.98125 8.92065L5.2803 4.2197Z" />
</svg>
