<svg width="24" height="24" viewBox="0 0 24 24" fill="none" xmlns="http://www.w3.org/2000/svg">
	<g clip-path="url(#clip0)">
		<rect y="12.0564" width="17.0503" height="17.0503" rx="1" transform="rotate(-45 0 12.0564)" fill="#F6354D" />
		<path d="M11.0325 7.50277C11.0147 6.95428 11.4545 6.5 12.0033 6.5C12.5496 6.5 12.9884 6.9503 12.9743 7.49638L12.8433 12.5726C12.8318 13.0191 12.4666 13.375 12.02 13.375C11.5755 13.375 11.2112 13.0223 11.1968 12.5781L11.0325 7.50277Z" fill="white" />
		<path d="M11 15.75C11 15.1977 11.4477 14.75 12 14.75C12.5523 14.75 13 15.1977 13 15.75L13 16C13 16.5523 12.5523 17 12 17C11.4477 17 11 16.5523 11 16V15.75Z" fill="white" />
	</g>
	<defs>
		<clipPath id="clip0">
			<rect width="24" height="24" fill="white" />
		</clipPath>
	</defs>
</svg>
