<svg width="24" height="24" viewBox="0 0 24 24" fill="none" xmlns="http://www.w3.org/2000/svg">
	<circle cx="12" cy="12" r="12" fill="#009378" />
	<path d="M18.1198 9.09413C18.5032 8.69657 18.4917 8.06351 18.0941 7.68015C17.6966 7.29679 17.0635 7.3083 16.6802 7.70586L18.1198 9.09413ZM10.4571 15.6L9.7373 16.2941C9.92577 16.4896 10.1856 16.6 10.4571 16.6C10.7287 16.6 10.9885 16.4896 11.177 16.2941L10.4571 15.6ZM7.31984 10.9059C6.93648 10.5083 6.30342 10.4968 5.90586 10.8801C5.50831 11.2635 5.4968 11.8966 5.88016 12.2941L7.31984 10.9059ZM16.6802 7.70586L9.7373 14.9059L11.177 16.2941L18.1198 9.09413L16.6802 7.70586ZM5.88016 12.2941L9.7373 16.2941L11.177 14.9059L7.31984 10.9059L5.88016 12.2941Z" fill="white" />
</svg>
