<svg width="24" height="24" viewBox="0 0 24 24" fill="none" xmlns="http://www.w3.org/2000/svg">
	<path fill-rule="evenodd" clip-rule="evenodd" d="M0.85493 20.4961L11.1318 2.51164C11.5156 1.83983 12.4843 1.83983 12.8682 2.51164L23.1451 20.4961C23.526 21.1627 23.0446 21.9922 22.2768 21.9922H1.72317C0.955349 21.9922 0.473983 21.1627 0.85493 20.4961ZM12.0033 8C11.4545 8 11.0147 8.45428 11.0325 9.00277L11.1968 14.0781C11.2112 14.5223 11.5755 14.875 12.02 14.875C12.4666 14.875 12.8318 14.5191 12.8433 14.0726L12.9743 8.99638C12.9884 8.4503 12.5496 8 12.0033 8ZM12 16.25C11.4477 16.25 11 16.6977 11 17.25V17.5C11 18.0523 11.4477 18.5 12 18.5C12.5523 18.5 13 18.0523 13 17.5V17.25C13 16.6977 12.5523 16.25 12 16.25Z" fill="#FFB818" />
</svg>
